<svg xmlns="http://www.w3.org/2000/svg" viewBox="0 0 125.47 55.29"><defs><style>.cls-1{fill:#fff;}.cls-2{fill:#a6233b;}</style></defs><title>logo</title><g id="Ebene_2" data-name="Ebene 2"><g id="Ebene_1-2" data-name="Ebene 1"><path class="cls-1" d="M75.87,17.42v4.24H74.71a25.44,25.44,0,0,0-5.81.88v16.1H64.61v-19l.72-.31a25.61,25.61,0,0,1,9.34-1.89Zm-24,17.39c-2.67,0-5.74-.77-5.74-6.79s3.07-6.79,5.74-6.79c2.84,0,5.74.81,5.74,6.79s-2.9,6.79-5.74,6.79m0-17.75c-3.75,0-10,1.42-10,11s6.28,11,10,11,10-1.43,10-11-6.28-11-10-11m-17,.35h4.3V38.67h-4.3Zm-3.5,0h1.2v4.24H31.41a25.44,25.44,0,0,0-5.81.88v16.1H21.32v-19l.72-.31a25.61,25.61,0,0,1,9.34-1.89M8.47,34.77a12.93,12.93,0,0,1-4.18-.67v-10c0-1.79,1.62-2.82,4.45-2.82,2.44,0,5.23.79,5.23,7,0,5.79-2.64,6.59-5.5,6.59m.27-17.71c-6.45-.1-8.74,3.71-8.74,7V45.84H4.29V38.47A17.35,17.35,0,0,0,8.47,39c3.67,0,9.84-1.4,9.84-10.77,0-10.07-6.69-11.16-9.57-11.16"/><path class="cls-2" d="M112.6,6.74,119.77,0S98.19,2.12,90.36,7.32h0A23.45,23.45,0,0,0,91,48.4l-6.65,6.89s21-2.06,29.06-7.1a23.46,23.46,0,0,0-.84-41.45"/><path class="cls-1" d="M100.56,16.58v3.85h4.11V38.62h3.92V20.43h4.08V16.58Zm-6.45,0H98v22H94.11Z"/></g></g></svg>